<svg width="116" height="116" viewBox="0 0 116 116" fill="none" xmlns="http://www.w3.org/2000/svg">
<circle cx="58" cy="58" r="58" fill="#D9D9D9"/>
<path d="M58.3164 5.80005C46.6656 5.80005 37.1332 17.168 37.1332 31.175C37.1332 45.182 46.6656 56.55 58.3164 56.55C69.9672 56.55 79.4997 45.182 79.4997 31.175C79.4997 17.168 69.9672 5.80005 58.3164 5.80005ZM36.1799 56.55C24.9528 57.0575 15.95 65.888 15.95 76.85V87H100.683V76.85C100.683 65.888 91.7859 57.0575 80.4529 56.55C74.7334 62.7415 66.8956 66.7 58.3164 66.7C49.7372 66.7 41.8994 62.7415 36.1799 56.55Z" fill="black"/>
</svg>
