<svg width="77" height="78" viewBox="0 0 77 78" fill="none" xmlns="http://www.w3.org/2000/svg">
<path d="M16.9866 0.36991C14.943 1.02471 13.5256 2.18204 12.9652 3.67439C12.6191 4.58806 11.6797 9.82649 11.7951 10.1311C11.894 10.3442 12.0917 10.3747 12.8334 10.3442L13.7728 10.2986L14.2837 9.44579L14.7946 8.59303L15.3715 8.9585C17.4975 10.3138 21.7167 10.3138 24.0899 8.97373C24.5514 8.69962 24.6668 8.68439 24.7821 8.86713C24.8645 8.98895 25.0953 9.35443 25.3095 9.68944C25.6721 10.2833 25.7215 10.2986 26.628 10.3442C27.3202 10.3747 27.6004 10.329 27.6663 10.1767C27.7652 9.91786 26.8422 4.86217 26.4961 3.72007C26.1995 2.79116 25.0953 1.57292 23.991 0.994258C22.0957 -0.0412455 19.1291 -0.300121 16.9866 0.36991Z" fill="#7B7B7B"/>
<path d="M57.8926 0.263491C56.1291 0.705102 54.5635 1.80152 53.8383 3.0959C53.4098 3.87252 52.1737 9.7353 52.355 10.1617C52.4209 10.3292 52.6846 10.3749 53.3933 10.3444C54.2998 10.2987 54.3492 10.2835 54.7118 9.68962C54.926 9.3546 55.1568 8.98913 55.2392 8.88253C55.3381 8.71503 55.5688 8.77594 56.3434 9.12618C59.1287 10.4358 62.0788 10.2987 65.1607 8.74548C65.2267 8.71503 65.5068 9.06527 65.787 9.53734L66.2979 10.3749H67.2044C67.8966 10.3749 68.1438 10.314 68.2262 10.1312C68.3416 9.85713 67.4186 4.58824 67.089 3.67456C66.5451 2.09085 64.8476 0.781242 62.5897 0.233034C61.5184 -0.041069 59.0298 -0.0258417 57.8926 0.263491Z" fill="#7B7B7B"/>
<path d="M3.47232 3.90287C3.01085 4.14652 2.7966 4.5729 2.81308 5.19725C2.81308 5.41044 4.01619 8.21239 5.46652 11.4407L8.10348 17.3035L7.39479 17.3492C6.50482 17.4101 5.94447 17.8974 5.92799 18.6283C5.92799 18.9481 6.70259 20.8669 8.11996 24.0495L10.3284 28.9681L14.4651 31.5569C18.2723 33.9477 18.5854 34.1304 18.6348 33.7802C18.6678 33.567 16.4264 28.4047 13.1796 21.1866L7.65849 8.94333L8.44958 8.60832C8.89457 8.42558 9.32307 8.13625 9.42196 7.95352C9.71862 7.46622 9.63621 6.65914 9.27363 6.29366C8.69679 5.73023 8.00459 5.69977 6.66963 6.21753C6.55426 6.26321 6.37297 6.06524 6.20816 5.69977C5.63133 4.42062 5.41707 4.11606 4.97209 3.90287C4.39525 3.61354 4.04915 3.62877 3.47232 3.90287Z" fill="#7B7B7B"/>
<path d="M44.2793 3.82677C43.7848 4.0095 43.3893 4.57294 43.3893 5.07546C43.3893 5.31911 44.51 7.98401 45.8779 11.0296C47.2458 14.06 48.4654 16.7401 48.5643 16.999L48.7786 17.4558L48.0699 17.4101C47.1634 17.334 46.5207 17.8517 46.5207 18.6284C46.5207 18.9329 47.4106 21.0953 48.7621 24.08L50.987 29.0291L55.0084 31.5417C57.2168 32.9122 59.1122 34.0696 59.2275 34.1152C59.3594 34.1457 59.3923 34.0391 59.3264 33.7345C59.277 33.4909 56.8048 27.9175 53.8382 21.339C50.8881 14.7605 48.416 9.27839 48.383 9.14134C48.3336 8.97383 48.4984 8.82155 48.9434 8.65404C49.7839 8.34948 50.1795 7.9231 50.1959 7.28352C50.2289 6.09574 49.1576 5.5323 47.8227 6.0196C47.4436 6.15665 47.114 6.26325 47.0975 6.23279C47.0645 6.20234 46.8338 5.74549 46.5701 5.19729C46.3064 4.64908 45.9768 4.1161 45.8285 4.02473C45.4824 3.75063 44.6913 3.65926 44.2793 3.82677Z" fill="#7B7B7B"/>
<path d="M14.9101 11.4558C14.6134 11.6995 14.1355 11.9431 13.8553 12.004C13.3609 12.0954 13.3609 12.1106 13.4598 12.7959C13.707 14.4405 15.2232 16.2983 16.9208 17.014C20.6619 18.5977 24.8646 16.9227 25.9853 13.4202C26.3809 12.2172 26.3479 12.0954 25.6227 11.9888C25.2437 11.9431 24.7987 11.7147 24.4691 11.4254L23.9417 10.9381L23.0682 11.1969C20.8103 11.8365 18.6513 11.8822 16.756 11.2883C15.5199 10.9076 15.5528 10.9076 14.9101 11.4558Z" fill="#7B7B7B"/>
<path d="M55.5191 11.4408C55.2554 11.6845 54.7939 11.9433 54.4808 11.989C53.9204 12.0804 53.9204 12.0956 54.0193 12.72C54.283 14.3494 55.8322 16.2681 57.4639 16.999C61.3369 18.7502 66.001 16.6336 66.7756 12.7656C66.9075 12.0652 66.9075 12.0499 66.5119 12.0499C66.0175 12.0499 65.5231 11.8215 64.9627 11.3342L64.5342 10.9687L63.3146 11.319C61.65 11.7911 58.9636 11.7911 57.3979 11.319C56.8046 11.1362 56.2607 10.984 56.1619 10.984C56.0795 10.984 55.7828 11.1972 55.5191 11.4408Z" fill="#7B7B7B"/>
<path d="M14.366 19.5419C14.4484 19.7398 15.8328 22.8007 17.4479 26.364L20.398 32.8359V34.1455C20.398 35.3485 20.431 35.4703 20.876 35.9729C22.1945 37.4195 22.5076 39.2469 21.7989 41.592C21.6011 42.2773 21.6011 42.2925 22.8372 45.0183C24.3864 48.4598 24.4853 48.7948 24.2711 49.7847C23.9744 51.0029 23.2987 51.7034 21.7 52.4191L20.3156 53.0434L20.3486 64.3578L20.398 75.6722L20.8925 76.327C21.7165 77.4235 22.6065 77.8955 23.9414 77.9564C24.5677 77.9869 25.3258 77.9412 25.6719 77.8346C26.496 77.591 27.5508 76.6925 27.9134 75.9311C28.21 75.3524 28.2265 74.1951 28.2265 50.7897C28.2265 29.8512 28.2595 26.2269 28.4572 26.0747C28.6385 25.9376 28.7209 25.9376 28.8198 26.0899C28.8857 26.1965 28.9846 30.6735 29.0341 36.0338L29.133 45.8101L29.5285 46.3431C30.2537 47.3025 30.9129 47.607 32.3468 47.607C33.7806 47.607 34.4398 47.3025 35.165 46.3431L35.5605 45.7949L35.61 35.6683C35.643 28.8157 35.5935 25.2676 35.4781 24.7346C34.9508 22.4199 33.1049 20.5012 30.5503 19.618C29.6768 19.3134 29.2813 19.2982 21.9308 19.2373L14.2177 19.1916L14.366 19.5419Z" fill="#7B7B7B"/>
<path d="M54.9754 19.466C55.0083 19.6183 56.3927 22.74 58.0408 26.41C59.7054 30.0799 61.0898 33.3083 61.1393 33.5824C61.1887 33.8717 61.1393 34.3438 61.0404 34.6331C60.8591 35.1356 60.8756 35.2118 61.5019 35.9732C62.26 36.9021 62.8368 38.3944 62.8368 39.4604C62.8368 39.8715 62.6885 40.6481 62.4907 41.1811L62.1446 42.1557L63.4961 45.1099C65.0947 48.6124 65.2101 49.2367 64.6003 50.455C64.1223 51.4448 63.4137 52.0235 61.9798 52.5869L60.9415 52.9828L60.8921 63.8556C60.8591 71.8198 60.8921 74.8807 61.0404 75.368C61.5183 76.9517 63.0346 77.9872 64.8969 77.9872C66.8087 77.9872 68.3415 76.8908 68.7535 75.2309C68.8689 74.7893 68.9348 66.0332 68.9348 50.3331C68.9348 37.0087 68.9842 26.0597 69.0502 26.014C69.0996 25.9531 69.2479 25.9836 69.3798 26.075C69.5611 26.212 69.594 27.9937 69.594 35.76C69.594 46.0084 69.5775 45.8713 70.4675 46.7393C71.8025 48.0642 74.423 47.988 75.5931 46.5871C76.3512 45.6429 76.3677 45.3384 76.3183 34.8158C76.2524 25.009 76.2524 24.9024 75.8898 24.004C74.8844 21.4913 72.6595 19.7706 69.9236 19.3746C69.2974 19.2833 65.9188 19.2071 61.8644 19.2071C55.305 19.2071 54.893 19.2224 54.9754 19.466Z" fill="#7B7B7B"/>
<path d="M5.26866 23.3337C4.24684 24.826 0.851751 30.567 0.686941 31.0695C0.439726 31.8309 0.67046 32.9882 1.19785 33.6887C1.57692 34.1608 14.1354 42.1403 14.91 42.3839C15.1737 42.4753 15.8165 42.5057 16.3604 42.4753C18.0579 42.3687 19.1786 41.3332 19.294 39.7647C19.3764 38.6835 19.1457 37.983 18.5029 37.3739C18.2392 37.1302 15.8659 35.5618 13.229 33.9171C10.6085 32.2573 8.44949 30.8715 8.44949 30.8411C8.44949 30.8106 8.5319 30.6431 8.64726 30.4908C8.81207 30.2472 8.58134 29.6533 7.3123 26.8057C5.41699 22.5875 5.5818 22.8768 5.26866 23.3337Z" fill="#7B7B7B"/>
<path d="M43.7023 26.8362C41.5598 30.3234 41.3455 30.765 41.2796 31.5568C41.1972 32.638 41.4444 33.3537 42.1201 33.9629C42.697 34.4806 54.1513 41.7444 55.1236 42.2164C55.9147 42.5971 57.2662 42.5971 58.1562 42.2164C59.5076 41.653 60.2822 40.0845 59.8867 38.7444C59.7878 38.3485 59.5076 37.8155 59.3098 37.5567C59.0956 37.313 56.7058 35.6988 53.9865 33.9933L49.0422 30.902L49.207 30.4756C49.3553 30.1102 49.1905 29.6381 47.8555 26.6534C47.015 24.7804 46.2569 23.1814 46.1909 23.1205C46.125 23.0444 45.0043 24.7195 43.7023 26.8362Z" fill="#7B7B7B"/>
<path d="M11.2512 59.3024V75.17L11.6467 75.9314C12.3389 77.3019 13.5255 77.9872 15.2396 77.9872C16.9371 77.972 18.2556 77.1953 18.9478 75.7791C19.228 75.2157 19.2444 74.3934 19.2939 64.3124C19.3104 58.3583 19.2774 53.4701 19.2115 53.4701C19.1456 53.4701 18.6676 53.6072 18.1732 53.7899C16.2614 54.4599 14.3166 53.866 13.3772 52.328C12.9817 51.658 12.8498 51.125 12.4213 48.0642C11.7621 43.5567 11.7786 43.6176 11.4984 43.511C11.2841 43.4349 11.2512 45.3841 11.2512 59.3024Z" fill="#7B7B7B"/>
<path d="M51.7946 58.9825C51.7946 68.8807 51.8605 74.8044 51.9758 75.2307C52.5362 77.5149 55.338 78.6723 57.6948 77.5911C58.1727 77.3779 58.7495 76.9667 58.9638 76.7079C59.8867 75.5962 59.8702 75.8094 59.8702 64.1905C59.8702 58.2972 59.8538 53.4699 59.8208 53.4699C59.8043 53.4699 59.3593 53.607 58.8319 53.7745C57.6783 54.1552 56.5246 54.1552 55.6676 53.7897C54.8271 53.4395 53.8382 52.4344 53.6239 51.7187C53.5415 51.4294 53.2284 49.5107 52.9317 47.4853C52.4373 44.0134 52.289 43.4195 51.9429 43.4195C51.8605 43.4195 51.7946 50.1502 51.7946 58.9825Z" fill="#7B7B7B"/>
<path d="M19.574 44.1046C18.3874 45.0031 15.6515 45.4447 14.3165 44.9574C14.0528 44.866 13.8221 44.8051 13.7892 44.8204C13.6573 44.9574 14.7286 51.3836 14.9593 51.6882C15.6021 52.6019 16.6404 52.6171 19.0466 51.7034C22.145 50.5309 22.557 50.2263 22.5241 49.069C22.4911 48.4903 20.4804 43.8458 20.2167 43.7696C20.1343 43.7544 19.8542 43.9067 19.574 44.1046Z" fill="#7B7B7B"/>
<path d="M60.3481 44.0134C59.0131 44.9728 57.1837 45.3687 55.5027 45.0489L54.3984 44.8357L54.4973 45.6885C54.5632 46.1605 54.761 47.6377 54.9588 48.9777C55.3049 51.3381 55.3214 51.4294 55.8488 51.9015C56.6234 52.6324 57.3156 52.5868 59.8701 51.6122C61.0073 51.1858 62.128 50.7137 62.3588 50.5614C62.9191 50.196 63.2323 49.4955 63.1169 48.8559C63.018 48.2772 60.9908 43.7241 60.8425 43.7241C60.7766 43.7241 60.5623 43.8459 60.3481 44.0134Z" fill="#7B7B7B"/>
</svg>
