<svg width="137" height="137" viewBox="0 0 137 137" fill="none" xmlns="http://www.w3.org/2000/svg">
<path fill-rule="evenodd" clip-rule="evenodd" d="M137 71.2C137 102.1 137 117.5 127.379 127.1C117.758 136.7 102.324 136.7 71.3563 136.7H65.6437C34.6759 136.7 19.2421 136.7 9.62107 127.1C0 117.5 0 102.1 0 71.2V65.5C0 34.6 0 19.2 9.62107 9.6C19.2421 0 34.6759 0 65.6437 0H71.3563C102.324 0 117.758 0 127.379 9.6C137 19.2 137 34.6 137 65.5V71.2Z" fill="#0077FF"/>
<path fill-rule="evenodd" clip-rule="evenodd" d="M56.7242 0C81.7791 0.1 95.2085 1 103.827 9.6C113.448 19.2 113.448 34.6 113.448 65.5V71.2C113.448 102.1 113.448 117.5 103.827 127.1C95.2085 135.6 81.7791 136.6 56.7242 136.7C31.6693 136.6 18.2399 135.7 9.62107 127.1C0 117.5 0 102.1 0 71.2V65.5C0 34.6 0 19.2 9.62107 9.6C18.2399 1 31.6693 0.1 56.7242 0Z" fill="#FF2B42"/>
<path fill-rule="evenodd" clip-rule="evenodd" d="M45.9003 47.4C44.1966 46.7 42.1922 47.8 41.8916 49.6C40.6889 55.7 40.1878 61.9 40.1878 68.2C40.1878 74.7 40.7891 81 41.9918 87.1C42.2924 89 44.1966 90.1 46.0006 89.4C57.4256 85.2 67.9486 78.8 76.8681 70.6C78.171 69.4 78.171 67.3 76.8681 66.1C67.9486 57.9 57.3254 51.5 45.9003 47.4ZM27.9611 46.9C29.9654 36.6 40.6889 30.5 50.6107 34.1C63.8396 38.9 75.9662 46.2 86.389 55.7C93.9055 62.5 93.9055 74.3 86.389 81.1C76.0664 90.5 63.8396 97.8 50.7109 102.6C40.8894 106.2 30.0657 100.2 28.0613 89.9C26.558 82.8 25.8564 75.5 25.8564 68.2C25.9567 60.9 26.6582 53.8 27.9611 46.9Z" fill="white"/>
</svg>
