<svg width="137" height="137" viewBox="0 0 137 137" fill="none" xmlns="http://www.w3.org/2000/svg">
<g clip-path="url(#clip0_123_164)">
<path d="M135.692 52.2468L135.132 49.5691L112.527 45.6459L125.666 27.8982L124.11 26.2168L104.805 35.4955L107.234 10.8977L105.241 9.77682L93.4714 29.6418L80.3941 0H78.09L81.2036 28.6455L48.0123 2.055L45.21 2.86455L70.8041 34.9973L20.1764 18.1214L17.8723 20.6745L63.0823 46.3932L0.685 51.6241L0 55.485L64.8259 62.5218L10.7732 107.234L13.0773 110.347L77.405 75.35L64.6391 137H68.5623L93.2223 79.0241L108.23 124.421L110.908 122.366L104.743 76.2218L128.157 102.812L129.714 100.384L111.78 67.4414L136.813 76.72L137.062 73.9177L114.644 57.3532L135.817 52.2468H135.692Z" fill="#FFBC0D"/>
</g>
<defs>
<clipPath id="clip0_123_164">
<rect width="137" height="137" fill="white"/>
</clipPath>
</defs>
</svg>
